<svg xmlns="http://www.w3.org/2000/svg" xmlns:xlink="http://www.w3.org/1999/xlink" width="500" zoomAndPan="magnify" viewBox="0 0 375 374.999991" height="500" preserveAspectRatio="xMidYMid meet" version="1.2"><g id="2f87ec222d"><rect x="0" width="375" y="0" height="374.999991" style="fill:#ffffff;fill-opacity:1;stroke:none;"/><rect x="0" width="375" y="0" height="374.999991" style="fill:#ffffff;fill-opacity:1;stroke:none;"/><path style=" stroke:none;fill-rule:nonzero;fill:#000000;fill-opacity:1;" d="M 69.886719 212.625 C 70.28125 212.824219 70.582031 213 70.800781 213.148438 C 70.546875 213.53125 70.226562 213.96875 69.980469 214.3125 C 68.320312 216.59375 65.546875 220.40625 66.71875 225.457031 C 67.234375 227.671875 68.382812 229.566406 69.667969 231.109375 C 69.035156 231.972656 68.527344 232.972656 68.292969 234.15625 C 67.082031 240.203125 70.308594 244.839844 73.753906 246.515625 C 73.894531 246.746094 74.011719 247.695312 73.65625 248.84375 C 73.363281 249.792969 72.957031 250.707031 72.5625 251.625 C 71.835938 253.320312 71.011719 255.242188 70.554688 257.460938 C 68.925781 265.378906 72.894531 276.742188 81.398438 281.027344 C 90.777344 285.753906 101.847656 284.523438 111.617188 283.433594 C 113.535156 283.21875 115.398438 283.007812 117.175781 282.859375 C 126.894531 282.042969 140.15625 283.71875 148.140625 296.304688 C 150.003906 299.242188 151.316406 302.492188 152.03125 305.96875 C 152.699219 309.1875 155.84375 311.257812 159.066406 310.589844 C 162.289062 309.925781 164.359375 306.785156 163.695312 303.566406 C 162.6875 298.679688 160.839844 294.097656 158.203125 289.941406 C 149.480469 276.199219 134.566406 269.480469 116.179688 271.015625 C 114.300781 271.171875 112.328125 271.390625 110.292969 271.617188 C 102.179688 272.523438 92.984375 273.546875 86.769531 270.417969 C 83.691406 268.863281 81.5625 263.054688 82.222656 259.851562 C 82.433594 258.816406 82.957031 257.597656 83.511719 256.304688 C 84.015625 255.132812 84.585938 253.800781 85.035156 252.355469 C 86.988281 246.054688 85.242188 240.066406 80.691406 236.878906 C 82.269531 235.496094 84.152344 233.613281 84.023438 230.574219 C 83.941406 228.652344 82.992188 226.902344 81.292969 225.671875 C 79.40625 224.3125 78.699219 223.421875 78.449219 223.019531 C 78.703125 222.554688 79.238281 221.820312 79.617188 221.300781 C 81.242188 219.058594 83.96875 215.316406 82.773438 210.421875 C 81.878906 206.746094 79.128906 203.808594 74.59375 201.695312 L 73.820312 201.398438 C 69.523438 200.082031 67.546875 199.179688 66.789062 198.78125 C 66.574219 198.394531 66.457031 197.929688 66.464844 197.59375 C 68.136719 194.261719 78.742188 182.484375 82.789062 177.992188 L 83.027344 177.730469 C 88.648438 171.492188 91.125 163.097656 91.417969 158.980469 C 91.746094 154.40625 90.3125 150.636719 89.046875 147.3125 C 88.230469 145.160156 87.523438 143.304688 87.390625 141.542969 C 87.164062 138.5625 88.054688 134.574219 88.914062 130.714844 C 89.308594 128.933594 89.695312 127.207031 89.976562 125.59375 C 92.1875 112.921875 95.652344 98.425781 104.609375 86.976562 C 127.734375 57.414062 180.433594 50.121094 218.269531 58.265625 C 220.003906 58.640625 221.9375 59.023438 224.023438 59.441406 C 237.871094 62.199219 258.800781 66.367188 270.980469 77.535156 C 299.753906 103.921875 300.25 153.980469 286.113281 187.6875 C 281.804688 197.957031 275.539062 207.808594 269.480469 217.335938 C 253.289062 242.789062 236.542969 269.113281 252.640625 307.085938 C 253.601562 309.351562 255.804688 310.714844 258.125 310.714844 C 258.898438 310.714844 259.6875 310.566406 260.445312 310.242188 C 263.472656 308.964844 264.890625 305.476562 263.605469 302.453125 C 249.945312 270.21875 263.65625 248.664062 279.535156 223.707031 C 285.859375 213.761719 292.402344 203.476562 297.097656 192.277344 C 313.195312 153.898438 312.160156 99.15625 279.039062 68.785156 C 264.402344 55.359375 241.503906 50.800781 226.355469 47.785156 C 224.332031 47.382812 222.460938 47.007812 220.78125 46.648438 C 178.367188 37.515625 121.609375 45.921875 95.222656 79.660156 C 84.648438 93.171875 80.703125 109.429688 78.242188 123.550781 C 77.988281 124.996094 77.644531 126.539062 77.289062 128.128906 C 76.285156 132.617188 75.15625 137.699219 75.515625 142.441406 C 75.777344 145.914062 76.910156 148.898438 77.910156 151.527344 C 78.859375 154.019531 79.675781 156.171875 79.535156 158.132812 C 79.386719 160.21875 77.609375 165.960938 74.167969 169.777344 L 73.933594 170.042969 C 59.996094 185.511719 55.722656 191.054688 54.875 194.75 C 53.894531 199.027344 55.246094 203.933594 58.324219 207.242188 C 59.339844 208.332031 61.640625 210.070312 69.886719 212.625 Z M 69.886719 212.625 "/><path style=" stroke:none;fill-rule:nonzero;fill:#000000;fill-opacity:1;" d="M 252.839844 112.292969 C 251.242188 112.265625 249.8125 113.496094 249.742188 115.136719 C 249.378906 123.730469 244.398438 126.21875 241.183594 126.929688 C 236.648438 119.082031 228.472656 113.351562 218.875 111.753906 C 216.21875 108.195312 217.007812 104.585938 218.671875 102.375 C 219.660156 101.0625 219.394531 99.199219 218.078125 98.214844 C 216.765625 97.230469 214.894531 97.492188 213.910156 98.804688 C 211.097656 102.542969 210.464844 107.136719 211.96875 111.367188 C 207.328125 111.574219 202.84375 112.742188 198.792969 114.769531 C 194.363281 111.535156 189.054688 109.328125 183.347656 108.308594 C 184.101562 106.398438 184.449219 104.300781 184.261719 102.125 C 183.878906 97.671875 181.5 93.738281 177.558594 91.042969 C 176.207031 90.121094 174.351562 90.464844 173.421875 91.816406 C 172.492188 93.171875 172.839844 95.019531 174.195312 95.949219 C 176.632812 97.617188 178.101562 99.988281 178.328125 102.636719 C 178.492188 104.496094 177.964844 106.289062 176.957031 107.660156 C 175.871094 107.640625 174.78125 107.640625 173.6875 107.707031 C 166.789062 108.109375 160.417969 110.242188 155.148438 113.554688 C 145.824219 105.007812 137.65625 107.488281 132.425781 111.113281 C 131.074219 112.050781 130.742188 113.902344 131.679688 115.25 C 132.617188 116.597656 134.472656 116.933594 135.824219 115.996094 C 140.679688 112.628906 145.308594 113.046875 150.292969 117.234375 C 145.128906 121.9375 141.722656 128.007812 141.066406 134.703125 C 140.90625 136.335938 142.101562 137.789062 143.742188 137.949219 C 143.839844 137.957031 143.9375 137.960938 144.03125 137.960938 C 145.546875 137.960938 146.84375 136.8125 146.992188 135.277344 C 148.117188 123.777344 159.746094 114.472656 174.035156 113.640625 C 180.980469 113.234375 187.746094 114.886719 193.207031 118.179688 C 191.554688 119.652344 190.167969 121.480469 189.128906 123.574219 C 180.609375 122.792969 171.230469 125.390625 168.476562 135.015625 C 168.023438 136.59375 168.941406 138.238281 170.523438 138.6875 C 170.796875 138.769531 171.070312 138.804688 171.339844 138.804688 C 172.636719 138.804688 173.828125 137.953125 174.203125 136.648438 C 176.085938 130.066406 182.925781 129.234375 187.300781 129.414062 C 186.480469 134.734375 187.875 139.882812 191.261719 143.691406 C 191.847656 144.355469 192.667969 144.691406 193.488281 144.691406 C 194.191406 144.691406 194.898438 144.445312 195.464844 143.941406 C 196.695312 142.855469 196.808594 140.976562 195.714844 139.746094 C 193.335938 137.070312 192.464844 133.292969 193.328125 129.394531 C 194.191406 125.515625 196.621094 122.285156 199.667969 120.960938 C 199.699219 120.949219 199.714844 120.925781 199.746094 120.910156 C 199.804688 120.882812 199.863281 120.855469 199.921875 120.824219 C 199.941406 120.8125 199.96875 120.8125 199.988281 120.800781 C 203.925781 118.5 208.507812 117.261719 213.234375 117.222656 C 213.308594 117.222656 213.382812 117.222656 213.453125 117.222656 C 227.210938 117.222656 238.664062 127.539062 239.03125 140.304688 C 239.238281 147.8125 235.867188 151.164062 230.769531 156.242188 C 223.449219 163.519531 214.34375 172.582031 212.566406 197.609375 C 212.449219 199.246094 213.683594 200.667969 215.324219 200.785156 C 215.394531 200.789062 215.46875 200.792969 215.539062 200.792969 C 217.085938 200.792969 218.394531 199.59375 218.503906 198.03125 C 220.125 175.222656 228.011719 167.375 234.972656 160.449219 C 235.089844 160.332031 235.203125 160.214844 235.320312 160.097656 C 235.398438 160.074219 235.480469 160.085938 235.554688 160.054688 C 241.011719 157.871094 245.460938 160.011719 247.613281 162.507812 C 248.199219 163.191406 249.03125 163.539062 249.871094 163.539062 C 250.558594 163.539062 251.25 163.304688 251.8125 162.820312 C 253.058594 161.75 253.199219 159.875 252.125 158.628906 C 249.722656 155.84375 245.820312 153.667969 241.246094 153.3125 C 243.574219 149.898438 245.140625 145.851562 244.984375 140.136719 C 244.90625 137.464844 244.414062 134.886719 243.621094 132.429688 C 249.640625 130.664062 255.265625 125.53125 255.691406 115.386719 C 255.757812 113.746094 254.484375 112.359375 252.839844 112.292969 Z M 252.839844 112.292969 "/><path style=" stroke:none;fill-rule:nonzero;fill:#000000;fill-opacity:1;" d="M 275.3125 111.929688 C 275.957031 96.578125 262.835938 83.511719 246.058594 82.808594 C 244.5625 82.746094 243.082031 82.789062 241.527344 82.917969 C 239.480469 83.113281 237.449219 82.320312 236.003906 80.789062 C 230.445312 74.957031 222.730469 71.554688 214.285156 71.199219 C 209 70.980469 203.769531 72.019531 199.222656 74.164062 C 197.0625 75.164062 194.1875 75.152344 191.78125 74.148438 C 188.230469 72.667969 184.433594 71.835938 180.492188 71.671875 C 171.808594 71.308594 163.667969 74.242188 157.648438 79.796875 C 156.140625 81.1875 153.886719 81.824219 151.71875 81.558594 C 150.828125 81.445312 149.933594 81.367188 149.042969 81.332031 C 148.472656 81.308594 147.898438 81.296875 147.320312 81.296875 C 135.609375 81.296875 120.9375 86.585938 118.144531 101.507812 C 117.539062 104.753906 115.683594 108.066406 113.824219 109.214844 C 107.8125 112.945312 104.558594 118.660156 104.414062 125.738281 C 104.1875 138.03125 111.640625 147.203125 124.394531 150.285156 L 124.941406 150.414062 C 125.851562 150.625 127.492188 151 128.09375 151.359375 C 131.464844 159.800781 138.621094 165.46875 147.777344 166.929688 C 149.96875 167.277344 152.035156 167.449219 154.101562 167.449219 L 154.105469 167.449219 C 159.511719 167.449219 164.023438 166.207031 167.328125 165.042969 C 168.457031 167.296875 171.121094 171.847656 177.722656 173.96875 C 180.136719 174.746094 182.625 175.136719 185.117188 175.136719 C 189.414062 175.136719 192.773438 173.992188 194.75 173.261719 C 195.246094 178.410156 195.464844 184.492188 195.660156 189.890625 C 195.851562 195.21875 196.015625 199.824219 196.414062 202.503906 C 197.609375 210.542969 204.007812 219.296875 213.511719 219.695312 L 214.761719 219.75 C 215.019531 219.761719 215.273438 219.765625 215.53125 219.765625 C 222.875 219.765625 229.46875 215.238281 231.9375 208.503906 C 238.75 189.996094 243.578125 187.480469 244.894531 187.152344 C 244.972656 187.132812 245.050781 187.109375 245.125 187.085938 C 258.683594 184.496094 268.507812 173.847656 269.042969 161.140625 C 269.042969 161.117188 269.054688 160.835938 269.054688 160.808594 C 269.09375 159.523438 269.824219 158.691406 270.425781 158.226562 C 276.867188 153.261719 280.746094 145.960938 281.074219 138.195312 C 281.335938 131.96875 279.378906 125.988281 275.410156 120.882812 C 274.558594 119.796875 274.277344 118.335938 274.644531 116.832031 C 275.019531 115.234375 275.242188 113.582031 275.3125 111.929688 Z M 264.957031 151.175781 C 261.988281 153.472656 260.230469 156.894531 260.117188 160.753906 C 259.753906 169.359375 252.832031 176.601562 243.210938 178.375 C 242.949219 178.429688 242.703125 178.496094 242.472656 178.570312 C 233.46875 181.046875 227.367188 195.0625 223.546875 205.433594 C 222.359375 208.675781 219.136719 210.851562 215.527344 210.851562 L 213.882812 210.792969 C 209.542969 210.609375 205.914062 205.683594 205.25 201.199219 C 204.921875 199.007812 204.757812 194.425781 204.582031 189.574219 C 204.371094 183.703125 204.132812 177.050781 203.539062 171.410156 C 203.066406 166.945312 199.820312 164.121094 194.992188 164.046875 C 193.941406 164.046875 193.097656 164.359375 192.03125 164.761719 C 190.46875 165.34375 188.109375 166.226562 185.113281 166.226562 C 183.554688 166.226562 181.984375 165.976562 180.457031 165.488281 C 176.902344 164.34375 175.816406 162.101562 175.097656 160.617188 C 174.945312 160.300781 174.808594 160.03125 174.695312 159.828125 C 172.882812 156.53125 168.863281 155.078125 165.152344 156.386719 C 158.972656 158.582031 154.6875 159.007812 149.1875 158.132812 C 143.160156 157.167969 138.472656 153.4375 136.328125 147.910156 C 134.644531 143.5 130.011719 142.433594 126.945312 141.730469 L 126.460938 141.617188 C 120.371094 140.144531 113.152344 136.222656 113.339844 125.917969 C 113.421875 121.839844 115.074219 118.941406 118.535156 116.792969 C 123.410156 113.777344 126.101562 107.550781 126.921875 103.144531 C 128.800781 93.117188 139.597656 89.875 148.667969 90.242188 C 149.308594 90.269531 149.953125 90.320312 150.605469 90.40625 C 155.5 91.015625 160.257812 89.519531 163.707031 86.355469 C 167.929688 82.453125 173.917969 80.328125 180.117188 80.582031 C 183 80.703125 185.769531 81.308594 188.339844 82.378906 C 193.007812 84.328125 198.542969 84.308594 203.003906 82.246094 C 206.292969 80.691406 210.070312 79.945312 213.90625 80.109375 C 219.941406 80.363281 225.636719 82.851562 229.523438 86.925781 C 232.488281 90.066406 236.640625 91.863281 240.910156 91.863281 C 241.398438 91.863281 241.890625 91.839844 242.320312 91.800781 C 243.425781 91.707031 244.558594 91.671875 245.683594 91.714844 C 257.539062 92.214844 266.828125 101.113281 266.390625 111.5625 C 266.34375 112.65625 266.195312 113.746094 265.957031 114.761719 C 264.945312 118.898438 265.828125 123.132812 268.363281 126.367188 C 271.007812 129.769531 272.320312 133.734375 272.148438 137.828125 C 271.925781 143.03125 269.378906 147.769531 264.957031 151.175781 Z M 264.957031 151.175781 "/></g></svg>